<mxfile host="app.diagrams.net" modified="2023-04-07T15:37:31.334Z" agent="Mozilla/5.0 (Windows NT 10.0; Win64; x64; rv:109.0) Gecko/20100101 Firefox/110.0" etag="1ieIq263j-9h-zgIpOP9" version="21.1.5" type="github">
  <diagram name="Page-1" id="FfktOeWRyp9ujqmmOqWU">
    <mxGraphModel dx="507" dy="290" grid="1" gridSize="10" guides="1" tooltips="1" connect="1" arrows="1" fold="1" page="1" pageScale="1" pageWidth="3300" pageHeight="4681" math="0" shadow="0">
      <root>
        <mxCell id="0" />
        <mxCell id="1" parent="0" />
        <mxCell id="ru_nYEevjtxVmv5qjt3C-4" style="edgeStyle=orthogonalEdgeStyle;rounded=0;orthogonalLoop=1;jettySize=auto;html=1;entryX=0.5;entryY=0;entryDx=0;entryDy=0;" edge="1" parent="1" source="ru_nYEevjtxVmv5qjt3C-1" target="ru_nYEevjtxVmv5qjt3C-3">
          <mxGeometry relative="1" as="geometry" />
        </mxCell>
        <mxCell id="ru_nYEevjtxVmv5qjt3C-1" value="開始" style="ellipse;whiteSpace=wrap;html=1;" vertex="1" parent="1">
          <mxGeometry x="511" y="40" width="70" height="30" as="geometry" />
        </mxCell>
        <mxCell id="ru_nYEevjtxVmv5qjt3C-16" value="" style="edgeStyle=orthogonalEdgeStyle;rounded=0;orthogonalLoop=1;jettySize=auto;html=1;" edge="1" parent="1" source="ru_nYEevjtxVmv5qjt3C-3" target="ru_nYEevjtxVmv5qjt3C-5">
          <mxGeometry relative="1" as="geometry" />
        </mxCell>
        <mxCell id="ru_nYEevjtxVmv5qjt3C-3" value="&lt;div style=&quot;&quot;&gt;&lt;font style=&quot;font-size: 12px;&quot;&gt;watchdog 時間設為30秒&lt;/font&gt;&lt;/div&gt;&lt;div style=&quot;&quot;&gt;&lt;font style=&quot;font-size: 12px;&quot;&gt;難度設為 困難&lt;br&gt;&lt;/font&gt;&lt;/div&gt;" style="rounded=0;whiteSpace=wrap;html=1;" vertex="1" parent="1">
          <mxGeometry x="473.5" y="100" width="145" height="60" as="geometry" />
        </mxCell>
        <mxCell id="ru_nYEevjtxVmv5qjt3C-8" value="" style="edgeStyle=orthogonalEdgeStyle;rounded=0;orthogonalLoop=1;jettySize=auto;html=1;" edge="1" parent="1" source="ru_nYEevjtxVmv5qjt3C-5" target="ru_nYEevjtxVmv5qjt3C-7">
          <mxGeometry relative="1" as="geometry" />
        </mxCell>
        <mxCell id="ru_nYEevjtxVmv5qjt3C-5" value="&lt;div&gt;狀態顯示設為預備&lt;/div&gt;&lt;div&gt;遊戲顯示線條清除&lt;/div&gt;&lt;div&gt;計時器ton1復歸&lt;/div&gt;&lt;div&gt;棋盤清空&lt;/div&gt;&lt;div&gt;栱盤堆疊清空&lt;br&gt;&lt;/div&gt;" style="rounded=0;whiteSpace=wrap;html=1;" vertex="1" parent="1">
          <mxGeometry x="472.5" y="210" width="147" height="90" as="geometry" />
        </mxCell>
        <mxCell id="ru_nYEevjtxVmv5qjt3C-13" style="edgeStyle=orthogonalEdgeStyle;rounded=0;orthogonalLoop=1;jettySize=auto;html=1;exitX=0;exitY=0.5;exitDx=0;exitDy=0;entryX=0;entryY=0.5;entryDx=0;entryDy=0;" edge="1" parent="1" source="ru_nYEevjtxVmv5qjt3C-7" target="ru_nYEevjtxVmv5qjt3C-5">
          <mxGeometry relative="1" as="geometry">
            <Array as="points">
              <mxPoint x="440" y="390" />
              <mxPoint x="440" y="255" />
            </Array>
          </mxGeometry>
        </mxCell>
        <mxCell id="ru_nYEevjtxVmv5qjt3C-14" value="&lt;div&gt;否&lt;/div&gt;" style="edgeLabel;html=1;align=center;verticalAlign=middle;resizable=0;points=[];" vertex="1" connectable="0" parent="ru_nYEevjtxVmv5qjt3C-13">
          <mxGeometry x="-0.8881" y="-1" relative="1" as="geometry">
            <mxPoint as="offset" />
          </mxGeometry>
        </mxCell>
        <mxCell id="ru_nYEevjtxVmv5qjt3C-17" value="" style="edgeStyle=orthogonalEdgeStyle;rounded=0;orthogonalLoop=1;jettySize=auto;html=1;" edge="1" parent="1" source="ru_nYEevjtxVmv5qjt3C-7" target="ru_nYEevjtxVmv5qjt3C-15">
          <mxGeometry relative="1" as="geometry" />
        </mxCell>
        <mxCell id="ru_nYEevjtxVmv5qjt3C-18" value="是" style="edgeLabel;html=1;align=center;verticalAlign=middle;resizable=0;points=[];" vertex="1" connectable="0" parent="ru_nYEevjtxVmv5qjt3C-17">
          <mxGeometry x="-0.7524" relative="1" as="geometry">
            <mxPoint as="offset" />
          </mxGeometry>
        </mxCell>
        <mxCell id="ru_nYEevjtxVmv5qjt3C-7" value="開始按鈕是否按下" style="rhombus;whiteSpace=wrap;html=1;" vertex="1" parent="1">
          <mxGeometry x="472.5" y="350" width="150" height="80" as="geometry" />
        </mxCell>
        <mxCell id="ru_nYEevjtxVmv5qjt3C-20" style="edgeStyle=orthogonalEdgeStyle;rounded=0;orthogonalLoop=1;jettySize=auto;html=1;exitX=1;exitY=0.5;exitDx=0;exitDy=0;entryX=0.5;entryY=0;entryDx=0;entryDy=0;" edge="1" parent="1" source="ru_nYEevjtxVmv5qjt3C-15" target="ru_nYEevjtxVmv5qjt3C-19">
          <mxGeometry relative="1" as="geometry" />
        </mxCell>
        <mxCell id="ru_nYEevjtxVmv5qjt3C-23" value="是" style="edgeLabel;html=1;align=center;verticalAlign=middle;resizable=0;points=[];" vertex="1" connectable="0" parent="ru_nYEevjtxVmv5qjt3C-20">
          <mxGeometry x="-0.1548" relative="1" as="geometry">
            <mxPoint as="offset" />
          </mxGeometry>
        </mxCell>
        <mxCell id="ru_nYEevjtxVmv5qjt3C-22" style="edgeStyle=orthogonalEdgeStyle;rounded=0;orthogonalLoop=1;jettySize=auto;html=1;exitX=0;exitY=0.5;exitDx=0;exitDy=0;entryX=0.5;entryY=0;entryDx=0;entryDy=0;" edge="1" parent="1" source="ru_nYEevjtxVmv5qjt3C-15" target="ru_nYEevjtxVmv5qjt3C-21">
          <mxGeometry relative="1" as="geometry" />
        </mxCell>
        <mxCell id="ru_nYEevjtxVmv5qjt3C-24" value="否" style="edgeLabel;html=1;align=center;verticalAlign=middle;resizable=0;points=[];" vertex="1" connectable="0" parent="ru_nYEevjtxVmv5qjt3C-22">
          <mxGeometry x="-0.1656" y="1" relative="1" as="geometry">
            <mxPoint x="-1" y="-2" as="offset" />
          </mxGeometry>
        </mxCell>
        <mxCell id="ru_nYEevjtxVmv5qjt3C-15" value="先手按鈕是否被切換" style="rhombus;whiteSpace=wrap;html=1;" vertex="1" parent="1">
          <mxGeometry x="480" y="500" width="136.25" height="80" as="geometry" />
        </mxCell>
        <mxCell id="ru_nYEevjtxVmv5qjt3C-19" value="狀態顯示設為輪到 X" style="rounded=0;whiteSpace=wrap;html=1;" vertex="1" parent="1">
          <mxGeometry x="581" y="620" width="120" height="60" as="geometry" />
        </mxCell>
        <mxCell id="ru_nYEevjtxVmv5qjt3C-26" value="" style="edgeStyle=orthogonalEdgeStyle;rounded=0;orthogonalLoop=1;jettySize=auto;html=1;" edge="1" parent="1" source="ru_nYEevjtxVmv5qjt3C-21" target="ru_nYEevjtxVmv5qjt3C-25">
          <mxGeometry relative="1" as="geometry" />
        </mxCell>
        <mxCell id="ru_nYEevjtxVmv5qjt3C-21" value="&lt;div&gt;狀態顯示設為輪到 O&lt;/div&gt;" style="rounded=0;whiteSpace=wrap;html=1;" vertex="1" parent="1">
          <mxGeometry x="400" y="620" width="120" height="60" as="geometry" />
        </mxCell>
        <mxCell id="ru_nYEevjtxVmv5qjt3C-25" value="設 ii = 0" style="rounded=0;whiteSpace=wrap;html=1;" vertex="1" parent="1">
          <mxGeometry x="400" y="730" width="120" height="60" as="geometry" />
        </mxCell>
        <mxCell id="ru_nYEevjtxVmv5qjt3C-29" style="edgeStyle=orthogonalEdgeStyle;rounded=0;orthogonalLoop=1;jettySize=auto;html=1;exitX=0;exitY=0.5;exitDx=0;exitDy=0;entryX=0;entryY=0.5;entryDx=0;entryDy=0;" edge="1" parent="1" source="ru_nYEevjtxVmv5qjt3C-28" target="ru_nYEevjtxVmv5qjt3C-25">
          <mxGeometry relative="1" as="geometry">
            <Array as="points">
              <mxPoint x="370" y="890" />
              <mxPoint x="370" y="760" />
            </Array>
          </mxGeometry>
        </mxCell>
        <mxCell id="ru_nYEevjtxVmv5qjt3C-28" value="" style="rhombus;whiteSpace=wrap;html=1;" vertex="1" parent="1">
          <mxGeometry x="410" y="850" width="90" height="80" as="geometry" />
        </mxCell>
      </root>
    </mxGraphModel>
  </diagram>
</mxfile>
